<svg width="526" height="110" viewBox="0 0 526 110" fill="none" xmlns="http://www.w3.org/2000/svg">
<g clip-path="url(#clip0_1_35)">
<path d="M148.64 37.54H151.14V68.24H163.34C168.14 68.24 171.04 66.54 171.04 62.04C171.04 58.34 168.74 56.39 165.34 55.99L166.44 54.04C170.39 54.49 173.54 57.19 173.54 62.09C173.54 67.79 169.94 70.54 163.94 70.54H148.64V37.54V37.54Z" fill="#FF5900"/>
<path d="M177.64 38.59C177.64 37.34 178.49 36.49 179.74 36.49C180.99 36.49 181.84 37.34 181.84 38.59C181.84 39.84 180.99 40.69 179.74 40.69C178.49 40.69 177.64 39.84 177.64 38.59ZM180.99 70.54H178.49V45.54H180.99V70.54Z" fill="#FF5900"/>
<path d="M192.34 64.84L192.19 70.54H189.94V34.04H192.44V50.99C193.94 47.29 197.44 45.04 201.69 45.04C208.24 45.04 213.09 49.89 213.09 58.04C213.09 66.19 208.19 71.04 201.69 71.04C197.34 71.04 193.79 68.69 192.34 64.84ZM210.59 58.04C210.59 51.34 207.09 47.24 201.44 47.24C196.19 47.24 192.44 51.49 192.44 58.09C192.44 64.69 196.19 68.84 201.39 68.84C207.04 68.84 210.59 64.74 210.59 58.04V58.04Z" fill="#FF5900"/>
<path d="M220.29 45.54H222.39L222.69 49.94C223.94 46.74 226.49 45.04 229.84 45.04C234.69 45.04 235.39 47.84 239.49 48.44L238.14 50.29C234.39 49.64 233.64 47.34 229.94 47.34C226.24 47.34 222.84 49.99 222.79 55.54V70.54H220.29V45.54V45.54Z" fill="#FF5900"/>
<path d="M241.49 58.04C241.49 49.94 246.44 45.04 253.09 45.04C259.74 45.04 263.89 49.89 263.89 56.89C263.89 57.54 263.84 58.09 263.79 58.54H243.94C244.14 65.04 247.89 68.84 253.34 68.84C257.19 68.84 260.04 67.09 261.54 64.14L263.54 65.29C261.69 68.84 258.04 71.04 253.39 71.04C246.49 71.04 241.49 66.14 241.49 58.04V58.04ZM243.99 56.29H261.44C261.29 50.74 258.14 47.24 253.04 47.24C247.94 47.24 244.59 50.59 243.99 56.29V56.29Z" fill="#FF5900"/>
<path d="M285.94 58.54H270.59V55.99H285.94V58.54Z" fill="#FF5900"/>
<path d="M295.09 37.54H317.64V39.84H297.59V52.59H313.44V54.94H297.59V68.24H318.44V70.54H295.09V37.54V37.54Z" fill="#FF5900"/>
<path d="M324.84 45.54H327.09L327.24 50.54C328.79 46.99 332.34 45.04 336.54 45.04C342.09 45.04 346.09 48.19 346.09 54.34V70.54H343.59V55.14C343.59 49.64 340.59 47.24 336.29 47.24C331.59 47.24 327.34 50.59 327.34 56.44V70.54H324.84V45.54V45.54Z" fill="#FF5900"/>
<path d="M367.59 47.69H358.24V63.94C358.24 67.09 359.79 68.74 362.64 68.74C364.49 68.74 365.89 68.09 367.04 66.89L367.99 68.94C366.69 70.19 364.74 71.04 362.34 71.04C358.44 71.04 355.74 68.94 355.74 64.29V47.69H350.74V45.54H355.74V39.29L358.24 38.59V45.54H367.59V47.69V47.69Z" fill="#FF5900"/>
<path d="M372.94 45.54H375.04L375.34 50.74C376.59 47.34 379.49 45.04 383.44 45.04C384.74 45.04 385.84 45.34 386.59 45.89L385.99 48.09C385.29 47.64 384.59 47.34 382.84 47.34C378.99 47.34 375.44 51.14 375.44 56.54V70.54H372.94V45.54V45.54Z" fill="#FF5900"/>
<path d="M388.99 58.04C388.99 49.94 393.94 45.04 400.59 45.04C407.24 45.04 411.39 49.89 411.39 56.89C411.39 57.54 411.34 58.09 411.29 58.54H391.44C391.64 65.04 395.39 68.84 400.84 68.84C404.69 68.84 407.54 67.09 409.04 64.14L411.04 65.29C409.19 68.84 405.54 71.04 400.89 71.04C393.99 71.04 388.99 66.14 388.99 58.04V58.04ZM391.49 56.29H408.94C408.79 50.74 405.64 47.24 400.54 47.24C395.44 47.24 392.09 50.59 391.49 56.29V56.29Z" fill="#FF5900"/>
<path d="M418.54 45.54H420.79L420.94 51.24C422.39 47.39 425.94 45.04 430.39 45.04C436.84 45.04 441.69 49.89 441.69 58.04C441.69 66.19 436.79 71.04 430.29 71.04C425.99 71.04 422.54 68.79 421.04 65.09V81.04H418.54V45.54V45.54ZM439.19 58.04C439.19 51.34 435.69 47.24 430.09 47.24C424.84 47.24 421.04 51.44 421.04 58.04C421.04 64.64 424.74 68.84 429.99 68.84C435.64 68.84 439.19 64.74 439.19 58.04V58.04Z" fill="#FF5900"/>
<path d="M448.89 45.54H450.99L451.29 50.74C452.54 47.34 455.44 45.04 459.39 45.04C460.69 45.04 461.79 45.34 462.54 45.89L461.94 48.09C461.24 47.64 460.54 47.34 458.79 47.34C454.94 47.34 451.39 51.14 451.39 56.54V70.54H448.89V45.54V45.54Z" fill="#FF5900"/>
<path d="M466.94 38.59C466.94 37.34 467.79 36.49 469.04 36.49C470.29 36.49 471.14 37.34 471.14 38.59C471.14 39.84 470.29 40.69 469.04 40.69C467.79 40.69 466.94 39.84 466.94 38.59ZM470.29 70.54H467.79V45.54H470.29V70.54Z" fill="#FF5900"/>
<path d="M476.84 65.04L478.99 63.59C480.14 66.99 483.39 68.84 487.89 68.84C492.39 68.84 494.94 66.94 494.94 64.09C494.94 62.14 493.94 60.69 490.54 59.94L484.69 58.69C479.94 57.69 478.04 55.39 478.04 52.19C478.04 48.24 481.89 45.04 487.54 45.04C492.54 45.04 495.89 47.04 497.19 50.94L495.09 52.29C494.09 48.79 491.14 47.24 487.54 47.24C483.29 47.24 480.54 49.29 480.54 52.04C480.54 53.99 481.64 55.64 485.09 56.39L491.09 57.69C495.79 58.69 497.44 60.74 497.44 63.74C497.44 68.24 493.59 71.04 487.69 71.04C482.64 71.04 478.44 68.94 476.84 65.04V65.04Z" fill="#FF5900"/>
<path d="M502.79 58.04C502.79 49.94 507.74 45.04 514.39 45.04C521.04 45.04 525.19 49.89 525.19 56.89C525.19 57.54 525.14 58.09 525.09 58.54H505.24C505.44 65.04 509.19 68.84 514.64 68.84C518.49 68.84 521.34 67.09 522.84 64.14L524.84 65.29C522.99 68.84 519.34 71.04 514.69 71.04C507.79 71.04 502.79 66.14 502.79 58.04V58.04ZM505.29 56.29H522.74C522.59 50.74 519.44 47.24 514.34 47.24C509.24 47.24 505.89 50.59 505.29 56.29V56.29Z" fill="#FF5900"/>
<path d="M28.91 37.3H35.81V64.75H45.81C49.56 64.75 51.71 63.45 51.71 60.4C51.71 57.35 49.91 55.9 46.86 55.85L49.01 51.2C55.06 51.4 57.86 55.6 57.86 60.5C57.86 66.95 53.66 70.3 46.31 70.3H28.91V37.3V37.3Z" fill="#FF5900"/>
<path d="M62.66 37.3H87.41V42.85H69.56V51.05H83.61V56.35H69.56V64.75H88.11V70.3H62.66V37.3Z" fill="#FF5900"/>
<path d="M75.18 12.1C78.5213 12.1 81.23 9.39132 81.23 6.05C81.23 2.70868 78.5213 0 75.18 0C71.8387 0 69.13 2.70868 69.13 6.05C69.13 9.39132 71.8387 12.1 75.18 12.1Z" fill="#FF5900"/>
<path d="M6.05 66.56C9.39132 66.56 12.1 63.8513 12.1 60.51C12.1 57.1687 9.39132 54.46 6.05 54.46C2.70868 54.46 0 57.1687 0 60.51C0 63.8513 2.70868 66.56 6.05 66.56Z" fill="#FF5900"/>
<path d="M30.05 102.56C33.3913 102.56 36.1 99.8513 36.1 96.51C36.1 93.1687 33.3913 90.46 30.05 90.46C26.7087 90.46 24 93.1687 24 96.51C24 99.8513 26.7087 102.56 30.05 102.56Z" fill="#FF5900"/>
<path d="M66.05 109.56C69.3913 109.56 72.1 106.851 72.1 103.51C72.1 100.169 69.3913 97.46 66.05 97.46C62.7087 97.46 60 100.169 60 103.51C60 106.851 62.7087 109.56 66.05 109.56Z" fill="#FF5900"/>
<path d="M36.44 13.38C39.7813 13.38 42.49 10.6713 42.49 7.33C42.49 3.98868 39.7813 1.28 36.44 1.28C33.0987 1.28 30.39 3.98868 30.39 7.33C30.39 10.6713 33.0987 13.38 36.44 13.38Z" fill="#FF5900"/>
<path d="M12.32 82.01C13.9934 82.01 15.35 80.6534 15.35 78.98C15.35 77.3066 13.9934 75.95 12.32 75.95C10.6466 75.95 9.28999 77.3066 9.28999 78.98C9.28999 80.6534 10.6466 82.01 12.32 82.01Z" fill="#FF5900"/>
<path d="M89.45 17.35C91.1234 17.35 92.48 15.9934 92.48 14.32C92.48 12.6466 91.1234 11.29 89.45 11.29C87.7766 11.29 86.42 12.6466 86.42 14.32C86.42 15.9934 87.7766 17.35 89.45 17.35Z" fill="#FF5900"/>
<path d="M17.84 89.46C19.5134 89.46 20.87 88.1034 20.87 86.43C20.87 84.7566 19.5134 83.4 17.84 83.4C16.1666 83.4 14.81 84.7566 14.81 86.43C14.81 88.1034 16.1666 89.46 17.84 89.46Z" fill="#FF5900"/>
<path d="M18.6 27.68C23.4877 27.68 27.45 23.7177 27.45 18.83C27.45 13.9423 23.4877 9.98 18.6 9.98C13.7123 9.98 9.75 13.9423 9.75 18.83C9.75 23.7177 13.7123 27.68 18.6 27.68Z" fill="#FF5900"/>
<path d="M102.6 42.5C107.488 42.5 111.45 38.5377 111.45 33.65C111.45 28.7623 107.488 24.8 102.6 24.8C97.7123 24.8 93.75 28.7623 93.75 33.65C93.75 38.5377 97.7123 42.5 102.6 42.5Z" fill="#FF5900"/>
<path d="M93.35 96.45C98.2377 96.45 102.2 92.4877 102.2 87.6C102.2 82.7123 98.2377 78.75 93.35 78.75C88.4623 78.75 84.5 82.7123 84.5 87.6C84.5 92.4877 88.4623 96.45 93.35 96.45Z" fill="#FF5900"/>
</g>
<defs>
<clipPath id="clip0_1_35">
<rect width="525.19" height="109.56" fill="white"/>
</clipPath>
</defs>
</svg>
