<svg width="412" height="88" viewBox="0 0 412 88" fill="none" xmlns="http://www.w3.org/2000/svg">
<g clip-path="url(#clip0_3_2)">
<path d="M112.52 29.82H114.51V54.21H124.2C128.01 54.21 130.32 52.86 130.32 49.29C130.32 46.35 128.49 44.8 125.79 44.48L126.66 42.93C129.8 43.29 132.3 45.43 132.3 49.32C132.3 53.85 129.44 56.03 124.67 56.03H112.52V29.82Z" fill="#FFFFFF"/>
<path d="M135.56 30.66C135.56 29.67 136.24 28.99 137.23 28.99C138.22 28.99 138.9 29.67 138.9 30.66C138.9 31.65 138.22 32.33 137.23 32.33C136.24 32.33 135.56 31.65 135.56 30.66ZM138.22 56.04H136.23V36.18H138.22V56.04Z" fill="#FFFFFF"/>
<path d="M147.23 51.51L147.11 56.04H145.32V27.04H147.31V40.5C148.5 37.56 151.28 35.77 154.66 35.77C159.86 35.77 163.72 39.62 163.72 46.1C163.72 52.58 159.83 56.43 154.66 56.43C151.2 56.43 148.38 54.56 147.23 51.51ZM161.73 46.11C161.73 40.79 158.95 37.53 154.46 37.53C150.29 37.53 147.31 40.91 147.31 46.15C147.31 51.39 150.29 54.69 154.42 54.69C158.91 54.69 161.73 51.43 161.73 46.11Z" fill="#FFFFFF"/>
<path d="M169.44 36.18H171.11L171.35 39.68C172.34 37.14 174.37 35.79 177.03 35.79C180.88 35.79 181.44 38.01 184.7 38.49L183.63 39.96C180.65 39.44 180.05 37.62 177.12 37.62C174.19 37.62 171.48 39.73 171.44 44.13V56.05H169.45V36.19L169.44 36.18Z" fill="#FFFFFF"/>
<path d="M186.28 46.11C186.28 39.68 190.21 35.78 195.49 35.78C200.77 35.78 204.07 39.63 204.07 45.19C204.07 45.71 204.03 46.14 203.99 46.5H188.22C188.38 51.66 191.36 54.68 195.69 54.68C198.75 54.68 201.01 53.29 202.2 50.95L203.79 51.86C202.32 54.68 199.42 56.43 195.73 56.43C190.25 56.43 186.28 52.54 186.28 46.1V46.11ZM188.27 44.72H202.13C202.01 40.31 199.51 37.53 195.46 37.53C191.41 37.53 188.75 40.19 188.27 44.72Z" fill="#FFFFFF"/>
<path d="M221.59 46.5H209.4V44.47H221.59V46.5Z" fill="#FFFFFF"/>
<path d="M228.86 29.82H246.77V31.65H230.84V41.78H243.43V43.65H230.84V54.22H247.4V56.05H228.85V29.84L228.86 29.82Z" fill="#FFFFFF"/>
<path d="M252.49 36.18H254.28L254.4 40.15C255.63 37.33 258.45 35.78 261.79 35.78C266.2 35.78 269.38 38.28 269.38 43.17V56.04H267.39V43.81C267.39 39.44 265.01 37.53 261.59 37.53C257.86 37.53 254.48 40.19 254.48 44.84V56.04H252.49V36.18Z" fill="#FFFFFF"/>
<path d="M286.45 37.89H279.02V50.8C279.02 53.3 280.25 54.61 282.52 54.61C283.99 54.61 285.1 54.09 286.02 53.14L286.77 54.77C285.74 55.76 284.19 56.44 282.28 56.44C279.18 56.44 277.04 54.77 277.04 51.08V37.89H273.07V36.18H277.04V31.22L279.03 30.66V36.18H286.46V37.89H286.45Z" fill="#FFFFFF"/>
<path d="M290.7 36.18H292.37L292.61 40.31C293.6 37.61 295.91 35.78 299.04 35.78C300.07 35.78 300.95 36.02 301.54 36.46L301.06 38.21C300.5 37.85 299.95 37.61 298.56 37.61C295.5 37.61 292.68 40.63 292.68 44.92V56.04H290.69V36.18H290.7Z" fill="#FFFFFF"/>
<path d="M303.45 46.11C303.45 39.68 307.38 35.78 312.66 35.78C317.94 35.78 321.24 39.63 321.24 45.19C321.24 45.71 321.2 46.14 321.16 46.5H305.39C305.55 51.66 308.53 54.68 312.86 54.68C315.92 54.68 318.18 53.29 319.37 50.95L320.96 51.86C319.49 54.68 316.59 56.43 312.9 56.43C307.42 56.43 303.45 52.54 303.45 46.1V46.11ZM305.44 44.72H319.3C319.18 40.31 316.68 37.53 312.63 37.53C308.58 37.53 305.92 40.19 305.44 44.72Z" fill="#FFFFFF"/>
<path d="M326.93 36.18H328.72L328.84 40.71C329.99 37.65 332.81 35.79 336.35 35.79C341.47 35.79 345.33 39.64 345.33 46.12C345.33 52.6 341.44 56.45 336.27 56.45C332.85 56.45 330.11 54.66 328.92 51.72V64.39H326.93V36.19V36.18ZM343.33 46.11C343.33 40.79 340.55 37.53 336.1 37.53C331.93 37.53 328.91 40.87 328.91 46.11C328.91 51.35 331.85 54.69 336.02 54.69C340.51 54.69 343.33 51.43 343.33 46.11Z" fill="#FFFFFF"/>
<path d="M351.04 36.18H352.71L352.95 40.31C353.94 37.61 356.25 35.78 359.38 35.78C360.41 35.78 361.29 36.02 361.88 36.46L361.4 38.21C360.84 37.85 360.29 37.61 358.9 37.61C355.84 37.61 353.02 40.63 353.02 44.92V56.04H351.03V36.18H351.04Z" fill="#FFFFFF"/>
<path d="M365.37 30.66C365.37 29.67 366.05 28.99 367.04 28.99C368.03 28.99 368.71 29.67 368.71 30.66C368.71 31.65 368.03 32.33 367.04 32.33C366.05 32.33 365.37 31.65 365.37 30.66ZM368.03 56.04H366.04V36.18H368.03V56.04Z" fill="#FFFFFF"/>
<path d="M373.24 51.67L374.95 50.52C375.86 53.22 378.45 54.69 382.02 54.69C385.59 54.69 387.62 53.18 387.62 50.92C387.62 49.37 386.83 48.22 384.12 47.62L379.47 46.63C375.7 45.84 374.19 44.01 374.19 41.47C374.19 38.33 377.25 35.79 381.74 35.79C385.71 35.79 388.37 37.38 389.41 40.48L387.74 41.55C386.95 38.77 384.6 37.54 381.74 37.54C378.36 37.54 376.18 39.17 376.18 41.35C376.18 42.9 377.05 44.21 379.79 44.81L384.56 45.84C388.29 46.63 389.6 48.26 389.6 50.65C389.6 54.23 386.54 56.45 381.85 56.45C377.84 56.45 374.5 54.78 373.23 51.68L373.24 51.67Z" fill="#FFFFFF"/>
<path d="M393.85 46.11C393.85 39.68 397.78 35.78 403.06 35.78C408.34 35.78 411.64 39.63 411.64 45.19C411.64 45.71 411.6 46.14 411.56 46.5H395.79C395.95 51.66 398.93 54.68 403.26 54.68C406.32 54.68 408.58 53.29 409.77 50.95L411.36 51.86C409.89 54.68 406.99 56.43 403.3 56.43C397.82 56.43 393.85 52.54 393.85 46.1V46.11ZM395.84 44.72H409.7C409.58 40.31 407.08 37.53 403.03 37.53C398.98 37.53 396.32 40.19 395.84 44.72Z" fill="#FFFFFF"/>
<path d="M59.72 9.62C62.3765 9.62 64.53 7.46649 64.53 4.81C64.53 2.15351 62.3765 0 59.72 0C57.0635 0 54.91 2.15351 54.91 4.81C54.91 7.46649 57.0635 9.62 59.72 9.62Z" fill="#FFFFFF"/>
<path d="M4.81 52.88C7.46649 52.88 9.62 50.7265 9.62 48.07C9.62 45.4135 7.46649 43.26 4.81 43.26C2.15351 43.26 0 45.4135 0 48.07C0 50.7265 2.15351 52.88 4.81 52.88Z" fill="#FFFFFF"/>
<path d="M23.87 81.48C26.5265 81.48 28.68 79.3265 28.68 76.67C28.68 74.0135 26.5265 71.86 23.87 71.86C21.2135 71.86 19.06 74.0135 19.06 76.67C19.06 79.3265 21.2135 81.48 23.87 81.48Z" fill="#FFFFFF"/>
<path d="M52.47 87.04C55.1265 87.04 57.28 84.8865 57.28 82.23C57.28 79.5735 55.1265 77.42 52.47 77.42C49.8135 77.42 47.66 79.5735 47.66 82.23C47.66 84.8865 49.8135 87.04 52.47 87.04Z" fill="#FFFFFF"/>
<path d="M28.94 10.63C31.5965 10.63 33.75 8.47649 33.75 5.82C33.75 3.16351 31.5965 1.01 28.94 1.01C26.2835 1.01 24.13 3.16351 24.13 5.82C24.13 8.47649 26.2835 10.63 28.94 10.63Z" fill="#FFFFFF"/>
<path d="M9.78 65.14C11.1055 65.14 12.18 64.0655 12.18 62.74C12.18 61.4145 11.1055 60.34 9.78 60.34C8.45452 60.34 7.38 61.4145 7.38 62.74C7.38 64.0655 8.45452 65.14 9.78 65.14Z" fill="#FFFFFF"/>
<path d="M71.06 13.78C72.3855 13.78 73.46 12.7055 73.46 11.38C73.46 10.0545 72.3855 8.98 71.06 8.98C69.7345 8.98 68.66 10.0545 68.66 11.38C68.66 12.7055 69.7345 13.78 71.06 13.78Z" fill="#FFFFFF"/>
<path d="M14.17 71.06C15.4955 71.06 16.57 69.9855 16.57 68.66C16.57 67.3345 15.4955 66.26 14.17 66.26C12.8445 66.26 11.77 67.3345 11.77 68.66C11.77 69.9855 12.8445 71.06 14.17 71.06Z" fill="#FFFFFF"/>
<path d="M14.78 21.99C18.6626 21.99 21.81 18.8426 21.81 14.96C21.81 11.0774 18.6626 7.93 14.78 7.93C10.8974 7.93 7.75 11.0774 7.75 14.96C7.75 18.8426 10.8974 21.99 14.78 21.99Z" fill="#FFFFFF"/>
<path d="M81.5 33.76C85.3826 33.76 88.53 30.6126 88.53 26.73C88.53 22.8474 85.3826 19.7 81.5 19.7C77.6174 19.7 74.47 22.8474 74.47 26.73C74.47 30.6126 77.6174 33.76 81.5 33.76Z" fill="#FFFFFF"/>
<path d="M74.16 76.62C78.0426 76.62 81.19 73.4726 81.19 69.59C81.19 65.7074 78.0426 62.56 74.16 62.56C70.2774 62.56 67.13 65.7074 67.13 69.59C67.13 73.4726 70.2774 76.62 74.16 76.62Z" fill="#FFFFFF"/>
<path d="M26.69 20.62H32.15V60.24H46.68C52.68 60.24 56.64 58.6 56.64 53.08C56.64 48.24 53.5 46.05 49.14 45.99L51.25 41.62C57.05 41.82 62.09 45.71 62.09 53.15C62.09 61.47 56.5 65.36 47.84 65.36H26.7V20.62H26.69Z" fill="#FFFFFF"/>
<path d="M37.64 20.62H61.32L58.89 25.74H43.09V33.07H55.31L52.82 38.19H43.1V50H48.44C52.32 50 52.27 55.12 48.8 55.12H37.64V20.62Z" fill="#FFFFFF"/>
</g>
<defs>
<clipPath id="clip0_3_2">
<rect width="411.65" height="87.04" fill="white"/>
</clipPath>
</defs>
</svg>
