<?xml version="1.0" standalone="no"?>
<!DOCTYPE svg PUBLIC "-//W3C//DTD SVG 20010904//EN"
 "http://www.w3.org/TR/2001/REC-SVG-20010904/DTD/svg10.dtd">
<svg version="1.0" xmlns="http://www.w3.org/2000/svg"
 width="896.000000pt" height="896.000000pt" viewBox="0 0 896.000000 896.000000"
 preserveAspectRatio="xMidYMid meet">
<metadata>
Created by potrace 1.14, written by Peter Selinger 2001-2017
</metadata>
<g transform="translate(0.000000,896.000000) scale(0.100000,-0.100000)"
fill="#000000" stroke="none">
<path d="M5935 8875 c-5 -2 -37 -11 -70 -21 -33 -10 -62 -20 -65 -23 -3 -3
-21 -14 -40 -25 -53 -28 -147 -131 -175 -190 -43 -91 -54 -143 -51 -235 5
-133 46 -230 134 -320 60 -61 110 -92 197 -123 58 -21 84 -24 155 -22 116 5
130 7 130 16 0 4 11 8 25 8 14 0 25 5 25 11 0 5 4 8 9 5 20 -13 158 100 209
172 83 118 103 333 41 454 -11 21 -17 38 -14 38 3 0 1 6 -5 13 -5 6 -27 35
-48 62 -89 115 -223 181 -372 182 -41 0 -79 -1 -85 -2z"/>
<path d="M2815 8768 c-27 -6 -53 -16 -57 -22 -4 -6 -8 -8 -8 -4 0 10 -67 -19
-104 -45 -199 -141 -267 -390 -166 -612 25 -54 24 -54 80 -117 53 -59 121
-104 207 -133 57 -20 84 -23 163 -20 107 4 165 21 250 76 95 62 177 175 205
284 12 46 14 170 4 218 -36 163 -152 296 -312 355 -68 26 -190 35 -262 20z"/>
<path d="M1467 8083 c-1 0 -31 -4 -66 -8 -91 -10 -213 -53 -293 -103 -49 -31
-144 -116 -176 -159 -63 -83 -118 -201 -139 -295 -4 -18 -7 -89 -6 -158 0
-102 5 -136 22 -185 12 -33 23 -64 25 -70 18 -57 90 -167 150 -227 65 -66 172
-137 246 -163 3 -1 12 -4 20 -8 123 -50 293 -54 440 -11 143 42 307 160 376
269 10 17 21 32 24 35 6 5 61 116 61 124 1 3 7 27 15 53 45 145 36 318 -22
458 -14 33 -28 68 -31 78 -3 9 -9 17 -14 17 -5 0 -9 5 -9 11 0 29 -128 166
-204 218 -49 34 -163 88 -198 94 -13 2 -30 7 -38 10 -22 9 -177 26 -183 20z"/>
<path d="M7091 7968 c-100 -27 -173 -123 -174 -227 0 -71 5 -90 37 -138 65
-97 191 -136 297 -91 159 68 196 289 67 401 -61 54 -151 75 -227 55z"/>
<path d="M8137 6894 c-1 -1 -18 -4 -37 -7 -80 -13 -106 -19 -117 -29 -7 -6
-13 -7 -13 -3 0 4 -7 2 -15 -5 -8 -7 -15 -9 -15 -5 0 5 -9 0 -20 -10 -11 -10
-20 -15 -20 -11 0 9 -104 -58 -152 -98 -94 -77 -180 -211 -220 -341 -29 -94
-32 -265 -5 -375 15 -64 77 -195 106 -227 12 -12 21 -25 21 -29 0 -12 68 -82
74 -76 3 3 6 1 6 -5 0 -12 100 -90 127 -100 10 -3 25 -12 33 -19 8 -7 17 -13
20 -13 7 0 42 -12 65 -22 32 -14 116 -31 170 -34 28 -2 52 -4 55 -5 3 -1 8 -2
11 -2 3 1 30 3 60 6 93 10 219 43 219 58 0 5 8 8 18 8 50 0 245 166 288 245
10 19 22 35 26 35 5 0 8 4 8 9 0 5 10 30 22 57 12 27 23 52 24 57 1 4 2 8 4
10 13 17 36 181 34 247 -2 77 -5 95 -24 165 -6 22 -14 50 -17 63 -3 12 -9 25
-14 28 -5 3 -9 14 -9 24 0 10 -4 20 -8 22 -4 2 -20 23 -34 48 -87 149 -260
275 -435 316 -55 13 -227 26 -236 18z"/>
<path d="M2315 5890 c-1 -3 -2 -597 -1 -1320 l1 -1314 750 1 c413 0 770 3 795
6 113 13 150 20 220 39 151 41 251 97 353 199 37 37 67 70 67 73 0 4 11 23 25
44 26 40 74 160 80 202 2 14 8 49 13 79 10 57 8 238 -2 305 -9 51 -33 133 -53
173 -8 17 -14 33 -12 35 6 6 -85 133 -125 173 -41 41 -128 105 -142 105 -4 0
-15 6 -23 14 -25 21 -179 65 -251 71 -36 4 -70 8 -76 10 -9 3 -188 -365 -181
-371 1 -1 25 -4 52 -7 78 -8 106 -16 164 -45 106 -53 165 -165 165 -312 -1
-175 -88 -285 -259 -325 -74 -18 -193 -28 -285 -25 -8 0 -24 0 -35 0 -11 -1
-24 -1 -30 -1 -26 -1 -392 0 -407 1 -10 0 -26 0 -35 0 -102 1 -163 2 -188 3
l-30 2 0 1093 c0 600 -2 1093 -5 1093 -17 5 -542 4 -545 -1z"/>
<path d="M5021 5890 c-8 -5 -13 -2590 -5 -2620 3 -13 125 -15 1016 -15 l1013
1 2 222 1 222 -111 1 c-62 1 -116 0 -122 -1 -5 -1 -14 -2 -20 -2 -14 0 -456 1
-475 1 -18 -1 -433 0 -580 1 -57 1 -106 3 -108 5 -2 2 -15 0 -28 -5 -16 -6
-26 -5 -31 3 -4 7 -8 159 -8 340 l0 327 40 1 c22 0 274 1 560 2 l520 2 0 210
0 210 -550 1 c-302 1 -554 2 -560 3 -6 1 -10 117 -10 326 l0 325 145 0 c80 1
400 1 713 1 l567 0 1 22 c4 113 0 409 -5 415 -9 8 -1952 11 -1965 2z"/>
<path d="M440 4519 c-182 -20 -311 -111 -396 -279 -37 -72 -56 -267 -31 -307
5 -7 6 -17 2 -22 -3 -5 -1 -12 4 -15 5 -3 12 -18 15 -32 15 -57 90 -155 168
-220 28 -23 126 -64 183 -77 148 -33 311 13 429 120 25 23 46 45 46 48 0 3 9
15 19 27 17 17 48 85 77 163 12 35 11 178 -2 222 -7 24 -11 43 -9 43 12 0 -74
142 -106 178 -64 70 -177 133 -259 145 -19 3 -44 7 -55 9 -11 2 -49 1 -85 -3z"/>
<path d="M913 2790 c-69 -23 -105 -52 -139 -113 -67 -123 -12 -281 115 -336
56 -24 77 -26 141 -16 142 23 231 179 183 320 -27 80 -123 152 -211 159 -21 2
-61 -5 -89 -14z"/>
<path d="M7300 2559 c-40 -11 -93 -28 -115 -39 -23 -11 -45 -20 -49 -20 -11 0
-117 -79 -159 -119 -71 -66 -164 -215 -183 -290 -28 -115 -33 -156 -29 -246 4
-109 5 -117 30 -190 39 -114 90 -199 172 -281 193 -194 474 -258 738 -169 55
19 128 56 133 68 2 4 8 7 14 7 13 0 107 77 132 109 11 13 26 31 35 40 26 25
69 96 95 154 155 352 -1 770 -347 930 -139 65 -321 82 -467 46z"/>
<path d="M1346 2194 c-51 -18 -89 -50 -122 -101 -32 -52 -34 -59 -36 -133 -3
-88 47 -165 137 -212 53 -28 145 -29 200 -3 117 55 176 198 127 307 -22 51
-78 118 -98 118 -8 0 -14 4 -14 9 0 12 -95 32 -132 29 -15 -1 -42 -8 -62 -14z"/>
<path d="M2367 1644 c-1 -1 -20 -5 -42 -8 -119 -19 -218 -78 -307 -185 -10
-12 -18 -24 -18 -27 0 -3 -8 -18 -19 -32 -23 -33 -49 -113 -56 -171 -3 -23 -8
-47 -11 -52 -3 -5 -2 -9 3 -9 4 0 8 -21 8 -47 0 -27 2 -55 6 -63 4 -8 12 -33
19 -55 17 -54 72 -138 119 -183 186 -179 478 -180 667 -3 64 60 119 157 141
243 11 46 9 174 -3 222 -23 88 -74 177 -129 227 -52 47 -74 63 -123 88 -52 26
-90 38 -147 48 -25 4 -106 9 -108 7z"/>
<path d="M5215 1079 c-14 -4 -25 -5 -25 -2 0 3 -7 0 -15 -7 -8 -7 -15 -10 -15
-7 0 5 -28 -5 -102 -36 -16 -7 -28 -15 -28 -19 0 -5 -7 -8 -15 -8 -8 0 -15 -4
-15 -10 0 -5 -5 -10 -11 -10 -13 0 -71 -62 -108 -115 -88 -126 -103 -335 -33
-475 20 -41 66 -105 102 -140 34 -35 119 -89 150 -97 14 -3 30 -9 35 -13 21
-17 197 -33 220 -21 6 3 20 7 33 9 35 4 121 40 153 63 15 10 30 19 33 19 12 0
98 96 122 137 112 187 87 426 -60 581 -52 54 -131 107 -197 130 -60 20 -181
32 -224 21z"/>
</g>
</svg>
